<?xml version="1.0" encoding="UTF-8" standalone="no"?>
<svg
   xmlns:dc="http://purl.org/dc/elements/1.1/"
   xmlns:cc="http://creativecommons.org/ns#"
   xmlns:rdf="http://www.w3.org/1999/02/22-rdf-syntax-ns#"
   xmlns:svg="http://www.w3.org/2000/svg"
   xmlns="http://www.w3.org/2000/svg"
   xmlns:sodipodi="http://sodipodi.sourceforge.net/DTD/sodipodi-0.dtd"
   xmlns:inkscape="http://www.inkscape.org/namespaces/inkscape"
   viewBox="0 0 575.9989 384"
   version="1.1"
   id="svg4"
   sodipodi:docname="eye.svg"
   width="575.9989"
   height="384"
   inkscape:version="0.92.3 (2405546, 2018-03-11)">
  <metadata
     id="metadata10">
    <rdf:RDF>
      <cc:Work
         rdf:about="">
        <dc:format>image/svg+xml</dc:format>
        <dc:type
           rdf:resource="http://purl.org/dc/dcmitype/StillImage" />
      </cc:Work>
    </rdf:RDF>
  </metadata>
  <defs
     id="defs8" />
  <sodipodi:namedview
     pagecolor="#ffffff"
     bordercolor="#666666"
     borderopacity="1"
     objecttolerance="10"
     gridtolerance="10"
     guidetolerance="10"
     inkscape:pageopacity="0"
     inkscape:pageshadow="2"
     inkscape:window-width="640"
     inkscape:window-height="480"
     id="namedview6"
     showgrid="false"
     inkscape:zoom="0.4609375"
     inkscape:cx="287.99945"
     inkscape:cy="192"
     inkscape:window-x="0"
     inkscape:window-y="0"
     inkscape:window-maximized="0"
     inkscape:current-layer="svg4" />
  <path
     d="m 287.99945,80 a 110.94,110.94 0 0 0 -31.24,5 55.4,55.4 0 0 1 7.24,27 56,56 0 0 1 -56,56 55.4,55.4 0 0 1 -27,-7.24 111.71,111.71 0 1 0 107,-80.76 z m 284.52,97.4 C 518.28945,71.59 410.92945,0 287.99945,0 165.06945,0 57.679453,71.64 3.4794532,177.41 a 32.35,32.35 0 0 0 0,29.19 C 57.709453,312.41 165.06945,384 287.99945,384 c 122.93,0 230.32,-71.64 284.52,-177.41 a 32.35,32.35 0 0 0 0,-29.19 z m -284.52,158.6 c -98.65,0 -189.089997,-55 -237.929997,-144 48.84,-89 139.269997,-144 237.929997,-144 98.66,0 189.09,55 237.93,144 -48.83,89 -139.27,144 -237.93,144 z"
     id="path2"
     inkscape:connector-curvature="0" />
</svg>
